<svg xmlns="http://www.w3.org/2000/svg" width="48" height="48" id="city">
  <path fill-rule="evenodd" d="M24 0A24 24 0 0 0 0 24a24 24 0 0 0 24 24 24 24 0 0 0 24-24A24 24 0 0 0 24 0zm3.613 11.662h5.16v9.291h3.098v-7.226H40v11.726h-3v-2h-4V21h-5v3h-2v-2h1.613V11.662zM8 12.695h3.2v6.194h4.027v-3.096h2.064V14.76h3.096v1.033h2.064V19H20v2.455h-5.088v2H12.5v4.5h-1.05v-2H8v-13.26zM21 20h4v4.086l-.293-.293a.979.979 0 0 0-.723-.291 1 1 0 0 0-.691.291l-5.357 5.357a1 1 0 0 0 .6 1.702V37H8l.05-10.047h2.4v2h3.05v-4.5h2.412v-2h3.275v2H21V20zm8 2h3v2.453h4v2h4V37H29.465v-6.148a1 1 0 0 0 .6-1.702l-1.061-1.06c.01-.056.014-.17.014-.17L29 22zm-5 2.5 5.357 5.357H18.643L24 24.5zm3.125 1.785h.893v1.633l-.893-.879v-.754zm-7.59 4.018h8.93V37h-3.572v-4.01h-1.786V37h-3.572v-6.697z"></path>
</svg>
